<svg xmlns="http://www.w3.org/2000/svg" viewBox="0 0 1200 650" fill="none">
<defs>
 <radialGradient id="g" cx="50%" cy="50%" r="50%"><stop offset="0" stop-color="#37a8ff" stop-opacity=".22"/><stop offset=".5" stop-color="#45e6a5" stop-opacity=".07"/><stop offset="1" stop-color="#061225" stop-opacity="0"/></radialGradient>
 <linearGradient id="l" x1="0" y1="0" x2="1" y2="1"><stop stop-color="#37a8ff" stop-opacity=".5"/><stop offset="1" stop-color="#45e6a5" stop-opacity=".42"/></linearGradient>
 <filter id="blur"><feGaussianBlur stdDeviation="12"/></filter>
</defs>
<ellipse cx="600" cy="325" rx="310" ry="205" fill="url(#g)" filter="url(#blur)"/>
<ellipse cx="600" cy="325" rx="185" ry="120" stroke="#37a8ff" stroke-opacity=".18" stroke-dasharray="5 9"/>
<ellipse cx="600" cy="325" rx="285" ry="190" stroke="#45e6a5" stroke-opacity=".11" stroke-dasharray="3 11"/>
<g stroke="url(#l)" stroke-width="1.5" stroke-linecap="round" stroke-opacity=".62">
 <path d="M600 325 L205 135"/><path d="M600 325 L995 135"/>
 <path d="M600 325 L165 510"/><path d="M600 325 L1035 510"/>
 <path d="M600 325 L390 585"/><path d="M600 325 L810 585"/>
</g>
<g fill="#45e6a5">
 <circle cx="205" cy="135" r="3"/><circle cx="995" cy="135" r="3"/>
 <circle cx="165" cy="510" r="3"/><circle cx="1035" cy="510" r="3"/>
 <circle cx="390" cy="585" r="3"/><circle cx="810" cy="585" r="3"/>
</g>
<g fill="#37a8ff" fill-opacity=".5">
 <circle cx="600" cy="325" r="5"/><circle cx="600" cy="325" r="18" fill="none" stroke="#37a8ff" stroke-opacity=".25"/>
</g>
</svg>